<svg xmlns="http://www.w3.org/2000/svg" viewBox="0 0 264.99 124.32"><defs><style>.cls-1{fill:#afafaf;}.cls-2{fill:#00ba96;}</style></defs><g id="Layer_2" data-name="Layer 2"><g id="레이어_1" data-name="레이어 1"><path class="cls-1" d="M157.68,113.41a2,2,0,0,1-1.57-.59,2.34,2.34,0,0,1-.54-1.65V95.4c0-1.49.7-2.24,2.11-2.24s2.1.75,2.1,2.24v5.94h8.9V95.4c0-1.49.7-2.24,2.1-2.24s2.11.75,2.11,2.24v15.77a2.34,2.34,0,0,1-.54,1.65,2,2,0,0,1-1.57.59,2,2,0,0,1-1.55-.59,2.3,2.3,0,0,1-.55-1.65V105h-8.9v6.22C159.78,112.66,159.08,113.41,157.68,113.41Z"/><path class="cls-1" d="M185.09,113.46a9.46,9.46,0,0,1-5-1.27,8.76,8.76,0,0,1-3.31-3.56,12.76,12.76,0,0,1,0-10.72,8.68,8.68,0,0,1,3.3-3.54,10.45,10.45,0,0,1,9.95,0,8.66,8.66,0,0,1,3.32,3.54,11.54,11.54,0,0,1,1.18,5.33,11.72,11.72,0,0,1-1.18,5.38,8.74,8.74,0,0,1-3.32,3.57A9.51,9.51,0,0,1,185.09,113.46Zm0-3.69a4.46,4.46,0,0,0,3.73-1.73,9.16,9.16,0,0,0,0-9.54,4.94,4.94,0,0,0-7.46,0,7.46,7.46,0,0,0-1.34,4.77,7.54,7.54,0,0,0,1.34,4.77A4.45,4.45,0,0,0,185.09,109.77Z"/><path class="cls-1" d="M199.24,113.41a1.79,1.79,0,0,1-1.41-.54,2.08,2.08,0,0,1-.49-1.48V95.18a2,2,0,0,1,.51-1.5,2,2,0,0,1,1.47-.52,2.17,2.17,0,0,1,1.29.34,3.06,3.06,0,0,1,.88,1.09l5.81,11,5.82-11A3.06,3.06,0,0,1,214,93.5a2.11,2.11,0,0,1,1.26-.34,1.89,1.89,0,0,1,1.43.52,2.09,2.09,0,0,1,.5,1.5v16.21c0,1.34-.63,2-1.9,2s-1.93-.68-1.93-2V101.11l-4.45,8.26a2.68,2.68,0,0,1-.7.8,1.56,1.56,0,0,1-1,.27,1.67,1.67,0,0,1-1-.27,2.39,2.39,0,0,1-.68-.8l-4.45-8.17v10.19C201.14,112.73,200.51,113.41,199.24,113.41Z"/><path class="cls-1" d="M222.65,113.41a2.07,2.07,0,0,1-1.58-.59,2.34,2.34,0,0,1-.54-1.65V95.4c0-1.49.71-2.24,2.12-2.24s2.09.75,2.09,2.24v15.77C224.74,112.66,224,113.41,222.65,113.41Z"/><path class="cls-1" d="M230.25,113.15a2,2,0,0,1-2.2-2.27V95.68a2,2,0,0,1,2.2-2.27h9.48a1.7,1.7,0,0,1,0,3.39h-7.66v4.62h7a1.71,1.71,0,0,1,0,3.42h-7v4.93h7.66a1.69,1.69,0,0,1,0,3.38Z"/><path class="cls-1" d="M250.52,113.46a15.87,15.87,0,0,1-3.48-.39,10.27,10.27,0,0,1-3-1.15,1.86,1.86,0,0,1-1-1.13,2.14,2.14,0,0,1,.09-1.39,1.72,1.72,0,0,1,.86-1,1.61,1.61,0,0,1,1.44.14,8.31,8.31,0,0,0,2.42,1,11.46,11.46,0,0,0,2.64.31,4.84,4.84,0,0,0,2.81-.63,1.89,1.89,0,0,0,.85-1.58,1.59,1.59,0,0,0-.59-1.29,5.36,5.36,0,0,0-2.1-.81l-3.07-.67q-5.13-1.12-5.13-5.49a5.65,5.65,0,0,1,1-3.29,6.32,6.32,0,0,1,2.73-2.2,9.9,9.9,0,0,1,4.06-.78,12.06,12.06,0,0,1,3,.37,8.87,8.87,0,0,1,2.58,1.11,1.76,1.76,0,0,1,.84,1.09,2,2,0,0,1-.1,1.29,1.55,1.55,0,0,1-.87.87,1.79,1.79,0,0,1-1.5-.2,7.47,7.47,0,0,0-1.9-.7,9.44,9.44,0,0,0-2.07-.22,4.49,4.49,0,0,0-2.65.68,2.12,2.12,0,0,0-.93,1.78,1.69,1.69,0,0,0,.57,1.32,4.66,4.66,0,0,0,2,.81l3.07.67q5.26,1.18,5.27,5.32a5.51,5.51,0,0,1-1,3.24,6.25,6.25,0,0,1-2.71,2.15A10.13,10.13,0,0,1,250.52,113.46Z"/><path class="cls-1" d="M162.41,87.47a15.87,15.87,0,0,1-3.48-.39,10.38,10.38,0,0,1-3-1.15,1.79,1.79,0,0,1-.95-1.14,2.11,2.11,0,0,1,.08-1.38,1.67,1.67,0,0,1,.87-1,1.61,1.61,0,0,1,1.44.14,8.49,8.49,0,0,0,2.42,1,11.87,11.87,0,0,0,2.63.31,4.84,4.84,0,0,0,2.81-.63,1.91,1.91,0,0,0,.86-1.59,1.53,1.53,0,0,0-.6-1.28,5.51,5.51,0,0,0-2.09-.82l-3.07-.67q-5.13-1.11-5.13-5.49a5.61,5.61,0,0,1,1-3.28,6.32,6.32,0,0,1,2.73-2.2,9.9,9.9,0,0,1,4.06-.79,12,12,0,0,1,3,.38,8.39,8.39,0,0,1,2.58,1.11,1.76,1.76,0,0,1,.84,1.09,2,2,0,0,1-.09,1.29,1.55,1.55,0,0,1-.87.87,1.85,1.85,0,0,1-1.51-.2A7.47,7.47,0,0,0,165,71a9.43,9.43,0,0,0-2.06-.23,4.38,4.38,0,0,0-2.65.69,2.1,2.1,0,0,0-.94,1.78,1.69,1.69,0,0,0,.57,1.32,4.66,4.66,0,0,0,2,.81L165,76c3.52.78,5.27,2.56,5.27,5.32a5.52,5.52,0,0,1-1,3.23,6.28,6.28,0,0,1-2.72,2.16A10.3,10.3,0,0,1,162.41,87.47Z"/><path class="cls-1" d="M174.55,87.41a2.06,2.06,0,0,1-1.58-.58,2.39,2.39,0,0,1-.54-1.66V69.41c0-1.49.71-2.24,2.12-2.24s2.09.75,2.09,2.24v5.94h8.91V69.41c0-1.49.7-2.24,2.09-2.24s2.12.75,2.12,2.24V85.17a2.39,2.39,0,0,1-.54,1.66,2.06,2.06,0,0,1-1.58.58,2,2,0,0,1-1.55-.58,2.39,2.39,0,0,1-.54-1.66V79h-8.91v6.21C176.64,86.67,175.94,87.41,174.55,87.41Z"/><path class="cls-1" d="M193.62,87.41a1.77,1.77,0,0,1-1.63-.78,2,2,0,0,1,0-1.93L199,69a3.46,3.46,0,0,1,1-1.39,2.45,2.45,0,0,1,2.77,0,3.25,3.25,0,0,1,1,1.39l7,15.71a2,2,0,0,1,0,1.94,1.65,1.65,0,0,1-1.53.77,2.08,2.08,0,0,1-1.43-.45,3.59,3.59,0,0,1-.88-1.4l-1.14-2.68H196.9l-1.11,2.68a4,4,0,0,1-.87,1.42A1.82,1.82,0,0,1,193.62,87.41ZM201.33,72l-3,7.45h6.13L201.38,72Z"/><path class="cls-1" d="M215.1,87.41a2.06,2.06,0,0,1-1.58-.58,2.39,2.39,0,0,1-.54-1.66V69.63a1.93,1.93,0,0,1,2.15-2.21h6.6a7,7,0,0,1,4.94,1.6,5.72,5.72,0,0,1,1.74,4.45,6,6,0,0,1-1.1,3.68,5.5,5.5,0,0,1-3.14,2,4.13,4.13,0,0,1,2.36,2.16l1.69,3.22a2.27,2.27,0,0,1,.21,2c-.23.61-.8.91-1.71.91a2.54,2.54,0,0,1-1.46-.39,3.08,3.08,0,0,1-1-1.2l-2.61-5a2.21,2.21,0,0,0-1-1.06,3.27,3.27,0,0,0-1.42-.28h-2.06v5.65a2.43,2.43,0,0,1-.53,1.66A2,2,0,0,1,215.1,87.41Zm2.09-11H221q3.39,0,3.39-2.8T221,70.81h-3.78Z"/><path class="cls-1" d="M233.54,87.16a2,2,0,0,1-2.2-2.27V69.69a2,2,0,0,1,2.2-2.27H243a1.7,1.7,0,0,1,0,3.39h-7.66v4.62h7a1.71,1.71,0,0,1,0,3.42h-7v4.92H243a1.7,1.7,0,0,1,0,3.39Z"/><path class="cls-1" d="M249.43,87.16a2,2,0,0,1-2.2-2.27V69.69a2,2,0,0,1,2.2-2.27h5.3c3.26,0,5.78.86,7.57,2.56s2.69,4.14,2.69,7.3-.89,5.59-2.69,7.3-4.31,2.58-7.57,2.58Zm2-3.55h3q6.12,0,6.11-6.33T254.48,71h-3Z"/><path class="cls-2" d="M50.34,42.34a8.07,8.07,0,1,0,8.06,8.07A8.07,8.07,0,0,0,50.34,42.34Z"/><path class="cls-2" d="M137.05,51.73,73,1.28a5.37,5.37,0,0,0-7,0L1.91,51.73A5,5,0,0,0,0,55.66v63.66a5,5,0,0,0,5,5H27c13.62,0,22.67-4.37,28.67-10.46l10.66,7.75a5,5,0,0,0,2.94,1h.45a5,5,0,0,0,2.94-1l10.66-7.75c6,6.09,15,10.46,28.67,10.46h22a5,5,0,0,0,5-5V55.66A5,5,0,0,0,137.05,51.73ZM56.87,87l0,.22c-.74,5.73-3.74,9.75-6.46,9.75a3.46,3.46,0,0,1-1.7-.5l-.12-.07C46,94.81,43.75,90.24,43.75,84.5c0-7.13,3.5-12.45,6.63-12.45S57,77.37,57,84.5A21.89,21.89,0,0,1,56.87,87Zm33.52,9.4-.12.07a3.46,3.46,0,0,1-1.7.5c-2.72,0-5.72-4-6.46-9.75,0-.07,0-.15,0-.22a19.74,19.74,0,0,1-.15-2.47c0-7.13,3.5-12.45,6.63-12.45S95.2,77.37,95.2,84.5C95.2,90.24,92.92,94.81,90.39,96.37ZM129,114.32H112.58c-4.21.05-13.71.14-21.08-6.42l4.2-3.06c5.66-3.54,9.5-11.22,9.5-20.34,0-12.59-7.3-22.45-16.63-22.45S71.94,71.91,71.94,84.5c0,.78,0,1.55.08,2.32a1.92,1.92,0,0,1,0,.24,51.32,51.32,0,0,0,5.39,18.72l-7.93,5.77-7.94-5.77a50.83,50.83,0,0,0,5.37-18.71,2.29,2.29,0,0,0,0-.25c0-.77.08-1.54.08-2.32,0-12.59-7.3-22.45-16.63-22.45S33.75,71.91,33.75,84.5c0,9.12,3.84,16.8,9.5,20.34l4.21,3.06c-7.37,6.56-16.88,6.47-21.09,6.42H10V58.09L69.48,11.27,129,58.09Z"/><circle class="cls-2" cx="88.62" cy="50.41" r="8.06" transform="translate(-5.49 11.21) rotate(-7.02)"/></g></g></svg>